<?xml version="1.0"?>
<svg xmlns="http://www.w3.org/2000/svg" id="outline" viewBox="0 0 512 512" width="512" height="512"><path d="M456.056,48H439.389V64h16.667A23.971,23.971,0,0,1,480,87.944V360.056A23.971,23.971,0,0,1,456.056,384H368V121.889l.845,1.689a8,8,0,0,0,13.3,1.543l40-48a8,8,0,0,0,1.746-6.436l-8-48A8,8,0,0,0,408,16H280a8,8,0,0,0-7.892,6.685L267.889,48H231.944A39.989,39.989,0,0,0,192,87.944V88H104V72h16V56H104V40H88V56H72V72H88V88h7.944A39.989,39.989,0,0,0,56,127.944V224H40.033A24.06,24.06,0,0,0,16,248.033v31.934A23.934,23.934,0,0,0,22.149,296,23.934,23.934,0,0,0,16,312.033v31.934A23.934,23.934,0,0,0,22.149,360,23.934,23.934,0,0,0,16,376.033v31.934A23.934,23.934,0,0,0,22.149,424,23.934,23.934,0,0,0,16,440.033v31.934A24.06,24.06,0,0,0,40.033,496H301.411A34.629,34.629,0,0,0,336,461.411V450.589A34.531,34.531,0,0,0,323.506,424a34.546,34.546,0,0,0,12.387-24H456.056A39.989,39.989,0,0,0,496,360.056V87.944A39.989,39.989,0,0,0,456.056,48ZM310.315,105.481,280.494,69.7,286.111,36l47.156,23.578ZM344,47.056,313.889,32h60.222Zm33.685,58.425-22.952-45.9L401.889,36l5.617,33.7ZM192,136H160V104h32Zm-64,0V104h16v32Zm23.321,16A48.071,48.071,0,0,1,104,192H72V152ZM95.944,104H112v32H72v-8.056A23.971,23.971,0,0,1,95.944,104ZM40.033,240H301.411A18.61,18.61,0,0,1,320,258.589v10.822A18.61,18.61,0,0,1,301.411,288H40.033A8.043,8.043,0,0,1,32,279.967V272H248V256H32v-7.967A8.043,8.043,0,0,1,40.033,240ZM320,322.589v10.822A18.61,18.61,0,0,1,301.411,352H40.033A8.043,8.043,0,0,1,32,343.967V336H248V320H32v-7.967A8.043,8.043,0,0,1,40.033,304H301.411A18.61,18.61,0,0,1,320,322.589Zm0,128v10.822A18.61,18.61,0,0,1,301.411,480H40.033A8.043,8.043,0,0,1,32,471.967V464H248V448H32v-7.967A8.043,8.043,0,0,1,40.033,432H301.411A18.61,18.61,0,0,1,320,450.589ZM40.033,416A8.043,8.043,0,0,1,32,407.967V400H248V384H32v-7.967A8.043,8.043,0,0,1,40.033,368H301.411A18.61,18.61,0,0,1,320,386.589v10.822A18.61,18.61,0,0,1,301.411,416Zm283.473-56A34.531,34.531,0,0,0,336,333.411V322.589A34.531,34.531,0,0,0,323.506,296,34.531,34.531,0,0,0,336,269.411V258.589A34.629,34.629,0,0,0,301.411,224H72V208h32a64.081,64.081,0,0,0,63.482-56H192v56h16V87.944A23.971,23.971,0,0,1,231.944,64h33.278l-1.114,6.685a8,8,0,0,0,1.746,6.436l40,48a8,8,0,0,0,13.3-1.543l.845-1.689V208h16V89.889l8-16,8,16V384H335.893A34.546,34.546,0,0,0,323.506,360Z"/><polygon points="32 64 48 64 48 48 64 48 64 32 48 32 48 16 32 16 32 32 16 32 16 48 32 48 32 64"/></svg>
